<svg xmlns="http://www.w3.org/2000/svg" width="52" height="49" viewBox="0 0 52 49">
    <g fill="none" fill-rule="nonzero">
        <path fill="#515151" stroke="#515151" stroke-width=".3" d="M26 2.619l17.48 6.555-12.112 4.542.515 1.374 5.614-2.105v7.62c-1.956 2.622-6.533 4.371-11.497 4.371-.727 0-1.741-.08-3.043-.24a.773.773 0 0 0-.855.627.697.697 0 0 0 .6.817c1.414.176 2.513.264 3.298.264 4.673 0 8.94-1.406 11.497-3.688v1.584c0 1.967-4.722 4.159-11.497 4.159-2.29 0-4.511-.26-6.422-.751l-.365 1.421c2.028.522 4.375.797 6.787.797 3.358 0 6.526-.527 8.921-1.485 2.608-1.043 4.044-2.514 4.044-4.14V12.433l6.198-2.324a1 1 0 0 0 0-1.873L26 1.052 18.028 4.04l.516 1.374L26 2.62z"/>
        <path fill="#515151" stroke="#515151" stroke-width=".3" d="M13.035 24.34c0 1.777 1.674 3.336 4.714 4.39l.481-1.386c-2.334-.81-3.727-1.933-3.727-3.004V12.985L26 17.296l4.509-1.69-.516-1.375L26 15.73 8.52 9.174l8.65-3.243-.516-1.375-9.817 3.682a1 1 0 0 0 0 1.872l6.198 2.324V24.34z"/>
        <path fill="#515151" stroke="#515151" stroke-width=".3" d="M20.182 24.13a.734.734 0 0 0-.906.459l-.01.029a.704.704 0 0 0 .458.906l.057.018a.705.705 0 0 0 .888-.496l.008-.03a.732.732 0 0 0-.495-.885z"/>
        <path fill="#FF0136" stroke="#FF0136" stroke-width=".2" d="M46.352 32.413l-.065.002c-.082.008-2.051.18-4.978.378l.099 1.465c2.768-.187 4.688-.353 4.974-.378 1.74.024 3.15 2.1 3.15 4.648 0 2.548-1.41 4.624-3.15 4.648-.625-.055-9.315-.799-17.567-.951.767-.935 1.246-2.246 1.246-3.697 0-1.45-.479-2.762-1.246-3.697 4.056-.075 8.158-.29 11.123-.477l-.092-1.465c-3.635.229-8.988.502-13.846.502-8.046 0-17.532-.746-19.788-.933a3.679 3.679 0 0 0-.564-.046c-1.287 0-2.48.667-3.361 1.879C1.457 35.432 1 36.937 1 38.528c0 1.591.457 3.096 1.287 4.237.88 1.211 2.074 1.879 3.36 1.879.192 0 .38-.017.566-.046 1.402-.117 5.59-.449 10.458-.682l-.07-1.466c-2.984.143-5.713.323-7.71.468.04-.05.08-.1.118-.153.83-1.14 1.286-2.646 1.286-4.237 0-1.591-.456-3.096-1.286-4.237-.039-.053-.078-.103-.118-.154 4.003.291 10.968.722 17.109.722 1.43 0 2.593 1.646 2.593 3.67 0 2.022-1.163 3.668-2.593 3.668-2.347 0-5.015.063-7.928.186l.062 1.467c2.36-.1 4.555-.16 6.547-.179l-2.54 4.121a.734.734 0 0 0 1.25.77l2.609-4.233 2.61 4.234a.734.734 0 0 0 1.25-.77l-2.541-4.122c8.86.084 18.864.96 18.969.97l.064.003c1.287 0 2.48-.668 3.361-1.879.83-1.14 1.287-2.646 1.287-4.237 0-1.591-.457-3.096-1.287-4.237-.88-1.211-2.074-1.878-3.36-1.878zM6.034 43.14l-.409.035c-1.743-.018-3.157-2.095-3.157-4.647s1.414-4.63 3.157-4.647l.409.035c1.572.279 2.794 2.24 2.794 4.612 0 2.371-1.222 4.332-2.794 4.612z"/>
        <path fill="#515151" stroke="#515151" stroke-width=".3" d="M23.364 13.173l-3.705-1.39a.734.734 0 0 1 .515-1.374l3.706 1.39a.734.734 0 1 1-.516 1.374zm-6.453-2.42a.734.734 0 1 1 .515-1.375.734.734 0 0 1-.515 1.375z"/>
        <path fill="#FF0136" stroke="#FF0136" stroke-width=".2" d="M39.6 36.582v-.001a.734.734 0 0 1 1.466-.094v.002a.732.732 0 0 1-.684.779h-.004a.732.732 0 0 1-.777-.686zm3.61-.982l2.37-.184a.74.74 0 0 1 .795.675.728.728 0 0 1-.669.788l-2.392.185a.73.73 0 0 1-.784-.676.739.739 0 0 1 .68-.788z"/>
    </g>
</svg>
